<?xml version="1.0" standalone="no"?>
<svg xmlns:xlink="http://www.w3.org/1999/xlink" id="wave" style="transform:rotate(0deg); transition: 0.3s" viewBox="0 0 1440 140" version="1.1" xmlns="http://www.w3.org/2000/svg"><defs><linearGradient id="sw-gradient-0" x1="0" x2="0" y1="1" y2="0"><stop stop-color="rgba(255, 36, 0, 1)" offset="0%"/><stop stop-color="rgba(237, 234, 224, 1)" offset="100%"/></linearGradient></defs><path style="transform:translate(0, 0px); opacity:1" fill="url(#sw-gradient-0)" d="M0,42L18.5,37.3C36.9,33,74,23,111,28C147.7,33,185,51,222,49C258.5,47,295,23,332,18.7C369.2,14,406,28,443,42C480,56,517,70,554,70C590.8,70,628,56,665,51.3C701.5,47,738,51,775,60.7C812.3,70,849,84,886,84C923.1,84,960,70,997,70C1033.8,70,1071,84,1108,91C1144.6,98,1182,98,1218,102.7C1255.4,107,1292,117,1329,100.3C1366.2,84,1403,42,1440,30.3C1476.9,19,1514,37,1551,58.3C1587.7,79,1625,103,1662,100.3C1698.5,98,1735,70,1772,70C1809.2,70,1846,98,1883,100.3C1920,103,1957,79,1994,58.3C2030.8,37,2068,19,2105,18.7C2141.5,19,2178,37,2215,53.7C2252.3,70,2289,84,2326,88.7C2363.1,93,2400,89,2437,74.7C2473.8,61,2511,37,2548,39.7C2584.6,42,2622,70,2640,84L2658.5,98L2658.5,140L2640,140C2621.5,140,2585,140,2548,140C2510.8,140,2474,140,2437,140C2400,140,2363,140,2326,140C2289.2,140,2252,140,2215,140C2178.5,140,2142,140,2105,140C2067.7,140,2031,140,1994,140C1956.9,140,1920,140,1883,140C1846.2,140,1809,140,1772,140C1735.4,140,1698,140,1662,140C1624.6,140,1588,140,1551,140C1513.8,140,1477,140,1440,140C1403.1,140,1366,140,1329,140C1292.3,140,1255,140,1218,140C1181.5,140,1145,140,1108,140C1070.8,140,1034,140,997,140C960,140,923,140,886,140C849.2,140,812,140,775,140C738.5,140,702,140,665,140C627.7,140,591,140,554,140C516.9,140,480,140,443,140C406.2,140,369,140,332,140C295.4,140,258,140,222,140C184.6,140,148,140,111,140C73.8,140,37,140,18,140L0,140Z"/></svg>